<svg version="1.2" xmlns="http://www.w3.org/2000/svg" viewBox="0 0 530 200" width="530" height="200"><style>.a{fill:#fed879}.b{display:none}</style><path class="a" d="m81 128.1c3 0 6.9-0.3 9.1-1.1v-1.8c-0.7 0.2-1.5 0.2-2.3 0.2-5.2 0-8.2-5-15.3-23-7.2-18.4-10.1-27.6-28.6-30 19.6-2.2 29.7-12.9 29.7-27 0-13.3-9-23.4-39.4-23.4h-29.6l0.1 2c4.6 1.3 6 4.8 6 17.1v66.9c0 12.2-1.4 15.7-6 17v2h24.3v-2c-4.7-1.3-6-4.8-6-17.1v-35.1h9.5c18.1 0 19.3 10.5 27.9 31.2 6.7 15.7 9.1 24.1 20.6 24.1zm-58-57.5v-46.1c2.4-0.1 4.8-0.2 7-0.2 22.2 0 30.9 11.2 30.9 24.6 0 12.7-8.1 21.7-25.3 21.7zm119.5 57.9c25.2 0 53.1-16.5 53.1-53.5 0-36.8-27.8-54.2-53.1-54.2-31.8 0-53.4 22.8-53.4 53.5 0 37.3 27.9 54.2 53.4 54.2zm-41.4-62.8c-0.9-24.5 12.4-41.5 35.2-41.5 26.9 0 46.5 29.3 47.6 60.6 0.7 22.5-11.1 39.9-35.1 39.9-26.9 0-46.7-28.9-47.7-59zm121.6 61.3h24.5v-2c-4.7-1.3-6-4.7-6-17v-28.5l22.9-40.8c6-10.7 10.7-13.4 14.7-14.7v-2h-17.8v2c5.7 1 5.5 5.5 0.4 14.7l-21 37.1-20.8-37.1c-6-10.7-7.8-13.4-3.3-14.7v-2h-23.7v2c3.1 1.3 7.5 4 13.3 14.7l22.7 41v28.3c0.1 12.2-1.4 15.7-5.9 17zm41.1 0h17v-1.9c-5.1-1.1-5.7-6-1.8-15.8l8.8-21.8h42.3l9.2 22c4.8 11.3 6 14.3 1.3 15.6v1.9h23.3v-1.9c-3.1-1.4-6.8-4.4-11.4-15.6l-36.9-88.7-11.3 5.2 1.4 3.1c1.2 2.4 1.3 4.4 0.3 7.1l-29.6 73.1c-4.6 11.5-8.4 14.5-12.6 15.8zm25-41.8l19.9-49.4 20.6 49.4zm81.4 41.8h69.7l1.1-17-1.7-0.2c-5.2 11.2-11.8 14.8-26.2 14.8h-17.9c-4.3 0-6.7-2.4-6.7-6.8v-76.8c0-12.3 1.3-15.7 6-17.1v-1.9h-24.3v2c4.5 1.3 6 4.7 6 17v67c0 12.3-1.5 15.7-6 17zm81.4 0h74l1.2-19.9-1.7-0.3c-5.4 13.9-14.5 18-28.9 18h-19.5c-4.4 0-6.8-2.4-6.8-6.8v-46h19.2c17.1 0 21.5 3.5 23.3 10.2h1.8v-22.7h-1.8c-1.8 6.8-6.2 10.2-23.3 10.2h-19.2v-45.4h22.1c15.3 0 24.1 4.5 29.4 17.7l1.6-0.5-1.6-19.5h-69.8v2c4.5 1.3 6 4.8 6 17.1v66.9c0 12.3-1.5 15.7-6 17.1z"/><path class="a" d="m169.3 182h8.1v-0.7c-1.5-0.4-2-1.6-2-5.6v-7.5h3.6c9.3 0 14.1-4.7 14.1-11.4 0-4.8-3.3-9.8-13.6-9.8h-10.2v0.7c1.5 0.4 2 1.6 2 5.6v22.4c0 4.1-0.5 5.2-2 5.6zm6.1-14.5v-19.6c0.6 0 1.4-0.1 2.1-0.1 8.1 0 11.2 4.9 11.2 10.2 0 6-3.4 9.5-9.8 9.5zm13.6 14.5h5.6v-0.6c-1.7-0.4-1.9-2-0.6-5.3l3-7.2h14.1l3 7.3c1.6 3.8 2 4.8 0.5 5.2v0.6h7.7v-0.6c-1-0.4-2.2-1.4-3.8-5.2l-12.3-29.6-3.7 1.8 0.4 1c0.4 0.8 0.5 1.5 0.1 2.3l-9.8 24.4c-1.6 3.9-2.8 4.9-4.2 5.3zm8.3-13.9l6.6-16.5 6.9 16.5zm53.5 14.3h0.7v-29.1c0-4.1 0.4-5.2 2-5.6v-0.7h-6.3v0.7c2.2 0.5 3.4 2 3.4 7.6v20l-21.8-28.3h-4.9v0.7c2 0.4 2.6 1.5 2.6 5.6v22.4c0 4.1-0.5 5.2-2 5.6v0.7h6.2v-0.7c-2.2-0.5-3.4-2-3.4-7.6v-21.9zm3.8-0.5h5.6v-0.6c-1.7-0.4-1.9-2-0.6-5.3l3-7.2h14.1l3 7.3c1.6 3.7 2 4.7 0.5 5.2v0.6h7.7v-0.6c-1-0.5-2.2-1.5-3.8-5.2l-12.3-29.6-3.7 1.8 0.4 1c0.4 0.8 0.5 1.5 0.1 2.3l-9.8 24.4c-1.6 3.9-2.8 4.9-4.2 5.3zm8.3-13.9l6.6-16.5 6.9 16.5zm27.1 13.9h6.3v-0.7c-2.2-0.6-3.4-2-3.4-7.7v-22.2l12.8 21.1h0.9l12.8-21.4v24.5c0 4.1-0.5 5.3-2 5.7v0.7h8.1v-0.7c-1.6-0.4-2-1.6-2-5.7v-20.3c0-5.7 1-7.1 3-7.7v-0.6h-5.6l-12.8 21.6-13.1-21.6h-6v0.6c2 0.6 3 2 3 7.7v20.3c0 4.1-0.4 5.3-2 5.7zm38.2 0h5.6v-0.6c-1.7-0.4-1.9-2-0.6-5.3l3-7.3h14.1l3 7.4c1.6 3.7 2 4.7 0.5 5.2v0.6h7.7v-0.6c-1-0.5-2.2-1.5-3.8-5.2l-12.3-29.6-3.7 1.7 0.4 1.1c0.4 0.8 0.5 1.4 0.1 2.3l-9.8 24.4c-1.6 3.8-2.8 4.8-4.2 5.3zm8.3-14l6.6-16.4 6.9 16.4z"/><path class="b" d=""/><path class="a" d="m526 157v10h-145v-10zm0 0v10h-145v-10z"/><path class="a" d="m152 157v10h-145v-10zm0 0v10h-145v-10z"/></svg>