<svg version="1.2" xmlns="http://www.w3.org/2000/svg" viewBox="0 0 550 222" width="550" height="222"><style>.a{fill:#8d093f}</style><path class="a" d="m91 137.1c3 0 6.9-0.3 9.1-1.1v-1.8c-0.7 0.2-1.5 0.2-2.3 0.2-5.2 0-8.2-5-15.3-23-7.2-18.4-10.1-27.6-28.6-30 19.6-2.2 29.7-12.9 29.7-27 0-13.3-9-23.4-39.4-23.4h-29.6l0.1 2c4.6 1.3 6 4.8 6 17.1v66.9c0 12.2-1.4 15.7-6 17.1v1.9h24.3v-1.9c-4.7-1.4-6-4.9-6-17.2v-35.1h9.5c18.1 0 19.3 10.5 27.9 31.2 6.7 15.7 9.1 24.1 20.6 24.1zm-58-57.5v-46.1c2.3-0.1 4.8-0.3 7-0.3 22.2 0 30.9 11.3 30.9 24.7 0 12.7-8.1 21.7-25.3 21.7zm119.5 57.9c25.2 0 53.1-16.5 53.1-53.5 0-36.8-27.8-54.2-53.1-54.2-31.8 0-53.4 22.8-53.4 53.5 0 37.3 27.9 54.2 53.4 54.2zm-41.4-62.8c-0.9-24.5 12.4-41.5 35.2-41.5 26.9 0 46.5 29.3 47.6 60.6 0.7 22.5-11.1 39.9-35.1 39.9-26.9 0-46.7-28.9-47.7-59zm121.6 61.3h24.5v-1.9c-4.7-1.4-6-4.8-6-17.1v-28.5l22.9-40.8c6-10.7 10.7-13.4 14.7-14.7v-2h-17.8v2c5.7 1 5.5 5.5 0.4 14.7l-21 37.1-20.8-37.1c-6-10.7-7.8-13.4-3.3-14.7v-2h-23.7v2c3.1 1.3 7.5 4 13.3 14.7l22.7 41v28.3c0.1 12.2-1.4 15.7-5.9 17.1zm41.1 0h17v-2c-5.1-1-5.7-6-1.8-15.7l8.8-21.9h42.3l9.2 22c4.8 11.2 6 14.2 1.3 15.6v2h23.3v-2c-3.1-1.4-6.8-4.4-11.4-15.6l-36.9-88.6-11.3 5.1 1.4 3.1c1.2 2.4 1.3 4.4 0.3 7.1l-29.6 73.1c-4.6 11.4-8.4 14.4-12.6 15.8zm25-41.8l19.9-49.4 20.6 49.4zm81.4 41.8h69.7l1.1-16.9-1.7-0.3c-5.2 11.2-11.8 14.8-26.2 14.8h-17.9c-4.3 0-6.7-2.4-6.7-6.7v-76.8c0-12.3 1.3-15.8 6-17.1v-2h-24.3v2c4.5 1.3 6 4.8 6 17.1v66.9c0 12.3-1.5 15.7-6 17.1zm81.4 0h74l1.2-20-1.7-0.3c-5.4 14-14.5 18-28.9 18h-19.5c-4.4 0-6.8-2.4-6.8-6.7v-46.1h19.2c17.1 0 21.5 3.5 23.3 10.2h1.8v-22.6h-1.8c-1.8 6.7-6.2 10.2-23.3 10.2h-19.2v-45.5h22.1c15.3 0 24.1 4.5 29.4 17.7l1.6-0.4-1.6-19.5h-69.8v1.9c4.5 1.4 6 4.8 6 17.1v66.9c0 12.3-1.5 15.8-6 17.1z"/><path class="a" d="m123.6 191h8.2v-0.7c-1.6-0.4-2-1.6-2-5.6v-12.5h5.9c5.7 0 7.1 1.2 7.7 3.5h0.7v-7.6h-0.7c-0.6 2.2-2 3.4-7.7 3.3h-5.9v-14.6h8.8c4.7 0 6.8 1.3 8.5 4.6l0.6-0.2-0.5-5.2h-23.6v0.7c1.5 0.4 2 1.5 2 5.6v22.4c0 4.1-0.5 5.2-2 5.6zm28 0h8.1v-0.6c-1.5-0.4-2-1.6-2-5.7v-22.3c0-4.1 0.5-5.3 2-5.7v-0.7h-8.1v0.7c1.5 0.4 2 1.6 2 5.7v22.3c0 4.1-0.5 5.3-2 5.7zm39.6 0.4h0.7v-29.1c0-4.1 0.4-5.2 2-5.7v-0.6h-6.3v0.6c2.2 0.6 3.4 2 3.4 7.7v20l-21.8-28.3h-4.9v0.6c2 0.5 2.6 1.6 2.6 5.7v22.3c0 4.1-0.5 5.3-2 5.7v0.7h6.2v-0.7c-2.2-0.6-3.4-2-3.4-7.7v-21.9zm7.2-0.4h24.6l0.4-6.6-0.5-0.1c-1.8 4.6-4.9 6-9.7 6h-6.5c-1.4 0-2.2-0.8-2.2-2.3v-15.3h6.4c5.7 0 7.1 1.1 7.7 3.4h0.6v-7.6h-0.6c-0.6 2.3-2 3.4-7.7 3.4h-6.4v-15.1h7.3c5.1 0 8.1 1.5 9.8 5.9l0.6-0.2-0.6-6.5h-23.2v0.7c1.5 0.4 2 1.6 2 5.7v22.3c0 4.1-0.5 5.2-2 5.7zm39.9 0h8.1v-0.7c-1.5-0.4-2-1.6-2-5.7v-7.5h3.6c9.3 0 14.1-4.6 14.1-11.3 0-4.8-3.3-9.8-13.6-9.8h-10.2v0.6c1.5 0.5 2 1.6 2 5.7v22.3c0 4.1-0.5 5.3-2 5.7zm6.1-14.6v-19.5c0.6-0.1 1.4-0.1 2.1-0.1 8.1 0 11.2 4.9 11.2 10.2 0 5.9-3.4 9.4-9.8 9.4zm21.4 14.6h24.7l0.4-6.6-0.5-0.1c-1.9 4.6-4.9 6-9.7 6h-6.5c-1.4 0-2.2-0.8-2.2-2.3v-15.3h6.4c5.6 0 7.1 1.1 7.7 3.4h0.6v-7.6h-0.6c-0.6 2.3-2.1 3.4-7.7 3.4h-6.4v-15.1h7.3c5.1 0 8.1 1.5 9.8 5.9l0.6-0.2-0.6-6.5h-23.3l0.1 0.7c1.5 0.4 2 1.6 2 5.7v22.3c0 4.1-0.5 5.2-2 5.7zm54.9 0.3c1 0 2.3-0.1 3-0.3v-0.6c-0.2 0-0.5 0-0.8 0-1.7 0-2.7-1.6-5.1-7.6-2.4-6.2-3.3-9.2-9.5-10 6.5-0.8 9.9-4.3 9.9-9 0-4.5-3-7.8-13.1-7.8h-9.9v0.6c1.6 0.5 2 1.6 2 5.7v22.3c0 4.1-0.4 5.3-2 5.7v0.7h8.1v-0.7c-1.5-0.4-2-1.6-2-5.7v-11.7h3.2c6 0 6.4 3.5 9.3 10.4 2.2 5.2 3 8 6.9 8zm-19.4-19.1v-15.4c0.8 0 1.6-0.1 2.4-0.1 7.4 0 10.3 3.8 10.3 8.2 0 4.3-2.7 7.3-8.5 7.3zm24.5 18.8h8.1v-0.7c-1.5-0.4-2-1.6-2-5.7v-12.4h6c5.7 0 7.1 1.2 7.7 3.5h0.6v-7.6h-0.6c-0.6 2.2-2 3.4-7.7 3.3h-6v-14.6h8.9c4.7 0 6.8 1.2 8.5 4.6l0.5-0.2-0.4-5.2h-23.6v0.6c1.5 0.5 2 1.6 2 5.7v22.3c0 4.1-0.5 5.3-2 5.7zm43.5 0.5c6.9 0 12.4-3.8 12.4-13.8v-15.3c0-4.1 0.5-5.3 2-5.7v-0.7h-6.2v0.7c2.2 0.6 3.4 2 3.4 7.7v13.4c0 9.8-5.7 12.7-10 12.7-6.5 0-11.7-3.4-11.7-12.7v-15.4c0-4.1 0.5-5.3 2-5.7v-0.7h-8.1v0.7c1.6 0.4 2 1.6 2 5.7v15.7c0 10.1 7 13.4 14.2 13.4zm18.4-0.5h6.3v-0.6c-2.2-0.6-3.4-2-3.4-7.7v-22.2l12.8 21h0.9l12.7-21.4v24.6c0 4.1-0.5 5.2-2 5.7v0.6h8.1v-0.6c-1.5-0.5-2-1.6-2-5.7v-20.3c0-5.7 1.1-7.1 3.1-7.7v-0.7h-5.7l-12.8 21.6-13-21.6h-6.1v0.7c2 0.6 3.1 2 3.1 7.7v20.3c0 4.1-0.5 5.2-2 5.7z"/><path  d=""/><path class="a" d="m113 169v10h-100v-10zm0 0v10h-100v-10zm0 0v10h-100v-10zm0 0v10h-100v-10z"/><path class="a" d="m536 169v10h-100v-10zm0 0v10h-100v-10zm0 0v10h-100v-10zm0 0v10h-100v-10z"/></svg>